Coordinates
version=1
nRows=14
nColumns=63
inDegrees=yes

Units are S.I. units (second, meters, Newtons, ...)
If the header above contains a line with 'inDegrees', this indicates whether rotational values are in degrees (yes) or radians (no).

endheader
time	pelvis_tilt	pelvis_list	pelvis_rotation	pelvis_tx	pelvis_ty	pelvis_tz	hip_flexion_r	hip_adduction_r	hip_rotation_r	knee_angle_r	knee_angle_r_beta	ankle_angle_r	subtalar_angle_r	mtp_angle_r	hip_flexion_l	hip_adduction_l	hip_rotation_l	knee_angle_l	knee_angle_l_beta	ankle_angle_l	subtalar_angle_l	mtp_angle_l	L5_S1_Flex_Ext	L5_S1_Lat_Bending	L5_S1_axial_rotation	L4_L5_Flex_Ext	L4_L5_Lat_Bending	L4_L5_axial_rotation	L3_L4_Flex_Ext	L3_L4_Lat_Bending	L3_L4_axial_rotation	L2_L3_Flex_Ext	L2_L3_Lat_Bending	L2_L3_axial_rotation	L1_L2_Flex_Ext	L1_L2_Lat_Bending	L1_L2_axial_rotation	L1_T12_Flex_Ext	L1_T12_Lat_Bending	L1_T12_axial_rotation	Abs_r3	Abs_r2	Abs_r1	Abs_t1	Abs_t2	neck_flexion	neck_bending	neck_rotation	arm_flex_r	arm_add_r	arm_rot_r	elbow_flex_r	pro_sup_r	wrist_flex_r	wrist_dev_r	arm_flex_l	arm_add_l	arm_rot_l	elbow_flex_l	pro_sup_l	wrist_flex_l	wrist_dev_l
0.000000	-1.092234	-7.252701	87.976503	0.111008	0.570762	0.820831	-3.766347	-2.353746	18.251145	0.637943	0.011134	22.090722	-13.723400	0.000000	-2.364259	1.879781	-7.747577	1.619020	0.028257	31.437898	1.032042	0.000000	-0.016582	-0.494719	2.432147	-0.030795	-0.657977	2.584156	-0.027243	-1.202861	2.584156	-0.018952	-1.202861	2.128128	-0.015398	-1.008832	1.976119	-0.009475	-0.766320	1.824110	-0.118447	-5.596366	13.526871	0.000000	0.000000	27.376778	-5.062901	-17.073660	20.111222	2.861567	82.646550	26.672630	36.444856	-2.946617	0.870334	24.722710	4.363935	75.286583	29.020382	48.402176	-1.586810	8.341935
0.016667	-0.702040	-7.258398	87.940603	0.111329	0.570837	0.820597	-3.635792	-1.919607	18.973613	0.592119	0.010334	22.615938	-14.040441	0.000000	-2.460540	1.500093	-7.927801	1.545377	0.026972	31.726407	1.361675	0.000000	0.004849	-0.452151	2.453752	0.009005	-0.601361	2.607112	0.007966	-1.099360	2.607112	0.005542	-1.099360	2.147033	0.004503	-0.922027	1.993674	0.002771	-0.700382	1.840314	0.034636	-5.114825	13.647035	0.000000	0.000000	27.401894	-4.964130	-16.657361	20.024611	2.864588	83.647278	26.839336	28.791563	-2.397444	1.866909	25.254325	4.783634	78.126794	28.223211	45.367927	-1.384931	7.765846
0.033333	-0.367213	-7.256955	87.918475	0.111573	0.570874	0.820432	-3.538952	-1.549894	19.547903	0.556438	0.009712	23.045107	-14.281200	0.000000	-2.557355	1.176285	-8.003955	1.475871	0.025759	31.935230	1.479081	0.000000	0.021750	-0.415188	2.469812	0.040392	-0.552201	2.624175	0.035733	-1.009489	2.624175	0.024858	-1.009489	2.161085	0.020197	-0.846652	2.006722	0.012428	-0.643127	1.852359	0.155359	-4.696694	13.736352	0.000000	0.000000	27.418753	-4.895315	-16.308786	19.933158	2.857455	84.382200	26.990555	22.703583	-1.962302	2.683923	25.660473	5.110130	80.336690	27.606900	43.049946	-1.230747	7.289519
0.050000	-0.083247	-7.249344	87.908943	0.111748	0.570879	0.820332	-3.472308	-1.239272	19.987713	0.529904	0.009249	23.386842	-14.453103	0.000000	-2.653801	0.903690	-7.985549	1.410033	0.024610	32.071713	1.405609	0.000000	0.034546	-0.383391	2.480817	0.064155	-0.509910	2.635868	0.056755	-0.932177	2.635868	0.039482	-0.932177	2.170715	0.032079	-0.781811	2.015664	0.019739	-0.593873	1.860613	0.246756	-4.336998	13.797559	0.000000	0.000000	27.428252	-4.851794	-16.019737	19.837372	2.841280	84.876133	27.126833	18.038826	-1.631155	3.335092	25.952827	5.352535	81.973257	27.153942	41.383018	-1.119976	6.905581
0.066667	0.154364	-7.236538	87.910832	0.111859	0.570856	0.820288	-3.432337	-0.982409	20.306740	0.511522	0.008928	23.649759	-14.563577	0.000000	-2.748977	0.677639	-7.882093	1.347394	0.023516	32.143198	1.162607	0.000000	0.043660	-0.356320	2.487260	0.081082	-0.473905	2.642713	0.071729	-0.866356	2.642713	0.049899	-0.866356	2.176352	0.040543	-0.726607	2.020899	0.024947	-0.551939	1.865445	0.311861	-4.030761	13.833392	0.000000	0.000000	27.431290	-4.828904	-15.782014	19.737757	2.817178	85.153897	27.248719	14.655203	-1.393967	3.834131	26.143056	5.519964	83.093486	26.846828	40.301924	-1.048335	6.606662
0.083333	0.350127	-7.219508	87.922970	0.111914	0.570809	0.820294	-3.415519	-0.773970	20.518679	0.500295	0.008732	23.842474	-14.620048	0.000000	-2.841979	0.493462	-7.703097	1.287485	0.022471	32.157030	0.771425	0.000000	0.049519	-0.333534	2.489632	0.091961	-0.443601	2.645234	0.081355	-0.810956	2.645234	0.056595	-0.810956	2.178428	0.045983	-0.680143	2.022826	0.028295	-0.516645	1.867224	0.353708	-3.773008	13.846587	0.000000	0.000000	27.428764	-4.821985	-15.587419	19.634823	2.786263	85.240310	27.356757	12.410624	-1.240704	4.194757	26.242830	5.621532	83.754364	26.668051	39.741448	-1.011541	6.385388
0.100000	0.508549	-7.199226	87.944180	0.111919	0.570743	0.820344	-3.418333	-0.608621	20.637228	0.495227	0.008643	23.973600	-14.629943	0.000000	-2.931905	0.346491	-7.458071	1.229836	0.021465	32.120554	0.253410	0.000000	0.052546	-0.314595	2.488426	0.097583	-0.418412	2.643953	0.086328	-0.764907	2.643953	0.060055	-0.764907	2.177373	0.048794	-0.641522	2.021846	0.030025	-0.487308	1.866320	0.375331	-3.558763	13.839881	0.000000	0.000000	27.421572	-4.826374	-15.427754	19.529075	2.749648	85.160191	27.451495	11.162999	-1.161331	4.430684	26.263821	5.666353	84.012879	26.600101	39.636373	-1.005314	6.234389
0.116667	0.634136	-7.176666	87.973289	0.111882	0.570662	0.820429	-3.437258	-0.481029	20.676084	0.495323	0.008645	24.051754	-14.600689	0.000000	-3.017853	0.232057	-7.156525	1.173978	0.020490	32.041114	-0.370089	0.000000	0.053167	-0.299062	2.484134	0.098736	-0.397753	2.639393	0.087347	-0.727140	2.639393	0.060764	-0.727140	2.173617	0.049370	-0.609847	2.018359	0.030379	-0.463247	1.863101	0.379763	-3.383050	13.816009	0.000000	0.000000	27.410613	-4.837411	-15.294820	19.421020	2.708447	84.938359	27.533480	10.770238	-1.145811	4.555628	26.217698	5.663542	83.926020	26.625473	39.921481	-1.025371	6.146292
0.133333	0.731395	-7.152798	88.009122	0.111808	0.570572	0.820544	-3.468773	-0.385859	20.648941	0.499587	0.008719	24.085550	-14.539711	0.000000	-3.098919	0.145492	-6.807968	1.119443	0.019538	31.926053	-1.077723	0.000000	0.051805	-0.286495	2.477248	0.096207	-0.381039	2.632076	0.085111	-0.696585	2.632076	0.059208	-0.696585	2.167592	0.048106	-0.584221	2.012764	0.029601	-0.443781	1.857936	0.370039	-3.240894	13.777708	0.000000	0.000000	27.396783	-4.850433	-15.180417	19.311166	2.663775	84.599633	27.603257	11.090252	-1.184110	4.583306	26.116132	5.622212	83.550775	26.726657	40.531557	-1.067429	6.113726
0.150000	0.804831	-7.128596	88.050505	0.111706	0.570476	0.820682	-3.509356	-0.317777	20.569498	0.507022	0.008849	24.083604	-14.454436	0.000000	-3.174200	0.082127	-6.421910	1.065761	0.018601	31.782717	-1.848144	0.000000	0.048886	-0.276455	2.468259	0.090787	-0.367686	2.622525	0.080316	-0.672174	2.622525	0.055872	-0.672174	2.159726	0.045396	-0.563748	2.005460	0.027934	-0.428229	1.851194	0.349191	-3.127318	13.727715	0.000000	0.000000	27.380981	-4.860780	-15.076348	19.200020	2.616744	84.168831	27.661373	11.980950	-1.266192	4.527431	25.970793	5.551477	82.944133	26.886145	41.401382	-1.127207	6.129319
0.166667	0.858952	-7.105031	88.096263	0.111580	0.570378	0.820836	-3.555487	-0.271450	20.451451	0.516632	0.009017	24.054530	-14.352292	0.000000	-3.242796	0.037292	-6.007862	1.012463	0.017671	31.618449	-2.660002	0.000000	0.044835	-0.268502	2.457659	0.083264	-0.357108	2.611263	0.073660	-0.652836	2.611263	0.051242	-0.652836	2.150452	0.041634	-0.547529	1.996848	0.025619	-0.415910	1.843245	0.320254	-3.037348	13.668764	0.000000	0.000000	27.364104	-4.863789	-14.974413	19.088088	2.568469	83.670771	27.708375	13.300242	-1.382022	4.401722	25.793353	5.460454	82.163081	27.086430	42.465741	-1.200421	6.185700
0.183333	0.887211	-7.085603	88.146629	0.111452	0.570274	0.820981	-3.605138	-0.251852	20.282907	0.530608	0.009261	23.994294	-14.219709	0.000000	-3.293262	0.016662	-5.607231	0.961393	0.016779	31.496202	-3.393491	0.000000	0.040982	-0.264278	2.447325	0.076107	-0.351490	2.600283	0.067329	-0.642566	2.600283	0.046838	-0.642566	2.141410	0.038056	-0.538916	1.988452	0.023417	-0.409367	1.835494	0.292729	-2.989567	13.611290	0.000000	0.000000	27.335885	-4.824312	-14.848511	18.993863	2.538743	83.198443	27.708861	15.227706	-1.540907	4.192543	25.610151	5.374051	81.301598	27.293699	43.610027	-1.263670	6.316754
0.200000	0.924317	-7.070668	88.199738	0.111296	0.570185	0.821132	-3.643348	-0.224922	20.173595	0.538829	0.009404	23.956425	-14.142344	0.000000	-3.333901	-0.013709	-5.194974	0.906920	0.015829	31.365806	-4.135894	0.000000	0.036998	-0.258371	2.435901	0.068709	-0.343634	2.588145	0.060784	-0.628203	2.588145	0.042285	-0.628203	2.131413	0.034356	-0.526870	1.979170	0.021141	-0.400217	1.826926	0.264273	-2.922746	13.547751	0.000000	0.000000	27.317137	-4.767825	-14.678152	18.892318	2.495580	82.779428	27.728935	16.465062	-1.674682	3.961922	25.442010	5.303562	80.510108	27.473130	44.660862	-1.356242	6.437967
0.216667	0.969793	-7.061686	88.245677	0.111132	0.570116	0.821268	-3.667615	-0.190585	20.095596	0.543341	0.009483	23.941008	-14.076151	0.000000	-3.366923	-0.052531	-4.796336	0.847181	0.014786	31.224284	-4.865647	0.000000	0.033611	-0.251008	2.425403	0.062419	-0.333840	2.576990	0.055219	-0.610300	2.576990	0.038414	-0.610300	2.122227	0.031211	-0.511855	1.970640	0.019205	-0.388811	1.819052	0.240079	-2.839449	13.489362	0.000000	0.000000	27.309124	-4.688259	-14.469919	18.759737	2.443579	82.232696	27.751885	17.609218	-1.789831	3.760678	25.273675	5.250865	79.718062	27.619675	45.760689	-1.426462	6.556576
